<?xml version="1.0" encoding="utf-8"?>
<!-- Generator: Adobe Illustrator 26.0.0, SVG Export Plug-In . SVG Version: 6.00 Build 0)  -->
<svg version="1.1" id="Layer_1" xmlns="http://www.w3.org/2000/svg" xmlns:xlink="http://www.w3.org/1999/xlink" x="0px" y="0px"
	 viewBox="0 0 2012.4 551.5" style="enable-background:new 0 0 2012.4 551.5;" xml:space="preserve">
<g>
	<path d="M1013.5,44.9c41,2.9,81.7,8.5,122.1,16.1c48.4,8.9,96.2,20.3,143.4,34.3c82,24.1,161.3,56.2,240.1,89.2
		c3.2,1.4,5.9,3.8,9.4,4.5c8.4,0.5,13.2-10.3,21.9-8c65.5,12.5,130.4,28.9,193.4,50.6c41.8,14.6,83,31.6,121.5,53.5
		c29.9,17.2,58.6,37.5,80.9,64.1c1.7,2,3.7,4.5,3,7.4c-8,20.8-22.4,38.2-37.5,54.2c-1.2,1.3-2.3,2.9-1.8,4.8
		c0.9,2.5,2.8,4.5,4.2,6.7c5,7.5,9.7,15.2,14.5,22.9c6.1-0.9,13.1-1.3,18.5,2.3c5.1,3.5,5.6,11.6,0.9,15.7c-5.5,4.9-13,7.3-20.3,8.1
		c-79.7,1.3-159.4,2.7-239.2,4c-3.8,0.5-2.9-4.1-1.6-6.2c17.3-32,21-70.2,13.8-105.6c-0.4-2-1.9-3.3-3.2-4.7c-3,5.2-1.4,11.4-2.2,17
		c-2.4,26.6-11.6,52.8-26.9,74.8c-16.4,23.7-40.9,41.2-68.2,50.2c-22.4,7.3-46.2,10.7-69.7,8.4c-30.3-2.8-59.6-15.6-81.7-36.6
		c-26.4-25-43.8-59.5-47.6-95.7c-0.1-2-1.1-3.9-2.7-5.2c-1.3,2.5-2.1,5.3-2.3,8.2c-0.6,9.7-3.3,19.2-3.3,29
		c-0.1,8.8,1.8,17.5,4.9,25.6c4.3,12.1,8,24.4,11.2,36.8c8,4.3,15.9,8.7,23.9,12.9c-66.8-2.2-133.6-5.1-200.4-7
		c-223.7-6.8-447.5-13.6-671.2-20.5c-3,0.2-2.7-3.5-2.1-5.5c3-9.6,6.4-19.1,9.5-28.7c-1.4-2.8-5.4-0.1-7.2-2
		c1-5.4,3.9-10.2,5.2-15.6c6.5-22,9.4-45.6,4.9-68.2c-3.7-19.9-9.9-39.5-20.1-57c-14.4-25.2-36.8-45.3-62.6-58.4
		c-18.9-9.5-39.2-17-60.4-18.7c-37.8-3.2-75.7,10-105.9,32.3c-23.6,17.5-43.7,41-53.7,68.9c-4.6,12.4-5.7,25.7-6.8,38.7
		c-1.5,20.9-1.8,42.4,4,62.7c1.1,4.5,3.8,8.2,5.3,12.5c0.8,2.4-1.8,3.9-3.9,3.4c-3.1,0.1-6.7-1.8-9.4,0.5c-1,3.7,1.7,6.8,2.7,10.1
		c-0.1,1.6-2.1,2.1-3.4,2c-6.7-0.4-13.4-0.4-20.1-1.6c-17.5-2.9-34-10.7-48.2-21.3c-13.4-9.9-24.8-22.1-34.9-35.3
		c-23.6-3.5-47.3-6.7-71-10c-2.5,0-3.9-2.7-3.8-4.9c-0.2-10.3-0.2-20.7,0.1-31c0-5.9-4.5-10-8.7-13.5c-7-5.9-9-15.2-9.7-23.9
		c25.4-0.5,50.8,0.2,76.2,0.2c4.6-0.2,9.3,0.9,13.6-1c10-3.9,20-7.6,30-11.5c1.7-0.6,3.6-2.1,3-4.2c-10.8-35.7-21.4-71.4-32-107.1
		c-1-4-5.3-5.6-8.9-6.5c-16.9-4.1-33.8-8-50.8-12.1c-1.8-0.3-3.8-1.1-5.6-0.1c-1.6,0.6-3.9,2.4-5.2,0.4c-0.4-3,2.2-5.7,5.1-6
		c10.6-2.2,21.4-3.4,32-5.2c53.3-8.1,106.5-17.7,159.7-26.2c46.3-7.5,92.7-14.6,139.1-21.3c48.3-6.9,96.6-13.5,145.2-18.3
		c45.6-4.3,91.1-8.4,136.7-12.3c14.4-4.3,29-8.7,44.2-9.5C833.1,41.8,923.6,38.3,1013.5,44.9 M1117.6,86.9
		c-67.5-10.2-136-11.2-204-8.1c-3.3,0.3-9.5-0.2-8.8,5c2.6,24,5.7,48.1,8.3,72.1c0.1,3.9,4.1,6.1,7.6,6.5c29,3.4,57.9,7.9,86.8,12
		c35.7,5.2,71.3,10.5,107,16c42.8,6.6,85.4,14.4,128.3,19.7c13.9,1.6,27.8,3.2,41.8,3.2c3.8-5.3,7.1-11.1,12-15.5
		c1.6-1.7,3.9-3.3,3.8-5.9c-0.1-2.3-2.4-3.6-4.1-4.8c-5.4-3.2-10.1-7.3-14.7-11.4c-1.2-13.5-2.6-27-4-40.5
		c8.1,0.4,16.3,0.4,24.4,1.2c12.7,4.9,25.2,10.2,37.9,15.1c4.4,1.4,6.4,6,9.6,9.1c2.1,2.4,5.5,5.8,3.2,9.2
		c-10,13.7-20.3,27.1-30.2,40.8c-2.1,2.1-1.2,5.9,2.1,5.8c15.7,0.5,31.4-1.2,46.9-3.4c26.5-4.1,52.7-10,79.1-15
		c2.9-0.6,6.3-0.7,8.4-3.2c-1.7-1.1-3.5-2.2-5.4-2.9c-7-2.3-13.5-5.8-20.2-8.8c-38-17.5-76.3-34.3-115.7-48.4
		c-24.6-8.8-49.8-15.8-74.9-22.9C1201.6,100.5,1159.7,92.8,1117.6,86.9 M742.3,80.7c-2.5,0-5.1,0.3-7.4,1.3
		c-28.3,11.4-56.6,22.8-85,34.2c-2.1,0.8-3.9,2.2-5.6,3.8c1.6,1.1,3.4,2.1,5.3,2.3c32.5,4.5,65,9.5,97.5,14.3c1.8,0.4,5.1,0,4.4-2.6
		c-3-1.9-6.5-2.5-9.8-3.6c-15.8-4.9-31.4-10.3-47.2-15.5c14.7-10,29.3-20.1,44-30.1C740.1,83.8,741.3,82.3,742.3,80.7 M866,87.1
		c0-2.7-3.2-3.8-5.4-3.3c-13.3,1.4-26.6,3.6-39.9,5.6c-6.6,1.1-14.3,1.2-19.1,6.5c-11,13.8-22.3,27.3-32,42.1
		c29.5,5.5,59.3,9.8,88.9,14.6c1.9,0.1,4,1.1,5.8-0.1c2.3-1.7,2.3-4.9,2.3-7.5C865.9,125.6,866.2,106.3,866,87.1 M780.8,84.9
		c-1.5,0.2-3.2,0.6-4.4,1.7c-12.4,9.2-24.9,18.2-37.2,27.4c2.1,4.7,6.5,7.8,9.6,11.8c3,2.8,5,6.9,8.9,8.6c1.9-1.1,1.4-3.5,0.7-5.2
		c-1.7-4.1-4.5-7.6-6.4-11.7c-0.7-1.5,0.3-2.9,1.4-3.9c7.9-7.4,15.5-15.1,23.2-22.7C778.3,89.2,780.4,87.5,780.8,84.9 M1337.7,253.2
		c-165-25.4-330-50.7-495-76.1c-5.9-0.5-11.8,0.8-17.6,2c-48.5,9.4-97,18.7-145.6,28c-2.6,0.6-5.4,0.7-7.8,1.9
		c-0.2,1.6,0.6,3.1,1.4,4.4c10.2,14.5,19.8,29.5,29.6,44.3c19.1,29,38,58.1,56.9,87.2c2.2,3.3,4.2,7.4,8.2,8.8
		c3.5,1,7.1,1.2,10.6,2.3c19.9,6.5,40.2,11.8,60.3,17.7c22.6,6.5,45.2,13,67.8,19.5c3.6,1,7.2,2.4,10.9,2.4
		c126,5.9,252.1,11.9,378.1,17.8c27.8,1.2,55.6,2.8,83.4,3.8c-154.8-18-309.6-36-464.4-54c-9.3-0.8-18.6-0.4-28-0.7
		c-18.7-0.2-37.3-0.4-55.9-0.6c-1.7,0-3.6,0-5.1-1c-9.9-5.8-19.7-11.7-29.6-17.5c-1.5-0.8-2.5-2.2-3.3-3.6
		c-13.2-24.1-26.8-48-39.9-72.1c-4.4-9.8-4.6-20.6-6.7-31c-1.1-7.1-3.1-14-4.2-21c0.1-2.8,3.2-3.7,5.5-4
		c25.5-3.9,50.9-7.9,76.4-11.7c11.5-1.5,23.1-4.6,34.8-2.8c163.7,19.9,327.4,39.7,491.1,59.5c14.8,1.6,29.4,4.2,44.2,4.8
		C1375.1,259.3,1356.4,255.9,1337.7,253.2 M1565,239.7c-31.8-4.4-65.1,4.4-90.4,24.1c-16.8,12.9-30.2,30.2-38.2,49.8
		c-14.8,35.3-11.7,77.5,8.4,110.1c17.4,28.9,47.4,49.9,80.6,56.2c32.4,6.4,67.2-1,94.1-20.2c17.8-12.6,32.1-30.1,40.8-50.2
		c15.9-35.8,13.2-79.4-7.6-112.7C1634,265.8,1600.9,244.3,1565,239.7 M1794.3,258c-13.2-3.8-26.6-6.6-40.2-8.5
		c31.5,12.8,62.5,27.6,90,47.7c6.7,5,13.1,10.3,18.9,16.2c6.2,0.5,12.4,1,18.6,1.8c2.7,0.3,5.7,0.9,7.9-1.1c-2.7-4-6.6-6.9-10-10.2
		C1855.6,281.6,1825.5,266.9,1794.3,258 M1882.4,353c-5.5,0.4-6.4,7.1-9,10.9c-12.5,19.1-25.2,38-37.8,57c-1.4,2.3-3.4,4.3-3.9,7
		c-0.5,2.6,2.5,3.5,4.2,4.7c6.6,3.7,12.9,8.1,19.7,11.3c10.2,1.8,20.6,2.8,31,2.3c3.6-0.2,8.3-0.5,9.9-4.4c2.6-6.1-1-12.4-2.7-18.2
		c-3.1-9.9-5.9-21.4-0.5-31c2.7-4.6,4.9-9.6,7.7-14.2c4.4-2.2,9.3-3.2,13.7-5.4c1.3-0.7,2.4-2.3,1.6-3.8c-1.1-1.9-3.2-2.9-5.1-3.8
		c-4.6-2-9.3-3.8-14.1-5.5c-11.2,22.7-22,45.6-33.3,68.3c9.3-23.5,18.9-46.8,28.3-70.3C1888.8,356.3,1885.9,353.9,1882.4,353z"/>
	<path d="M141.6,171.9c3.5,12.3,7,24.6,10.5,36.9c-15.3-0.1-30.7-0.3-46-0.5c-6.3-14.3-12.5-28.7-19.5-42.6
		c-1.3-2.3-0.4-5.8,2.3-6.4c4.3-1,8.6,0.4,12.7,1.4C115,164.1,128.3,168,141.6,171.9z"/>
	<path d="M430,211.8c12.2,1.2,24.3,3.8,35.9,7.8c30.6,10.6,57.4,31.6,75.1,58.7c23.7,35.7,30.6,81.8,18.8,122.9
		c-9.4,33.9-31.4,64-60.6,83.4c-35.3,23.8-81.1,31.1-122.1,19.8c-33.6-8.9-63.7-30.1-83.4-58.7c-22.7-32.4-31.5-74-24.1-112.9
		c6.3-34.7,25.5-66.8,53-88.8C352.4,219.9,391.8,208.2,430,211.8 M369.2,248.4c-30.3,12.7-54.8,38.4-66.2,69.3
		c-8.9,23.9-10.1,50.6-3.3,75.1c9,33.8,33.7,63,65.4,77.7c20.3,9.5,43.2,13.4,65.4,10.8c36.5-3.7,70.6-25.2,89.9-56.5
		c21.7-34.2,24.4-79.3,7.1-115.9c-14.5-31.6-43.3-56.3-76.8-65.6c-5.8-1.6-11.6-2.9-17.6-3.7C411.5,236.8,389.2,239.9,369.2,248.4z"
		/>
	<path d="M171.1,272.3c-9.2,3.8-18.5,7.4-27.7,11.2c-2.4,1.1-5.2,1-7.8,1c-8.2,0.1-16.3,0.2-24.5,0.3c0.2-12,0.2-24-0.2-36
		c-0.4-9.2-0.7-18.5-2.7-27.5c-0.2-1.2-0.6-2.6,0.2-3.6c1.8-1.1,4.1-0.9,6.1-1c13.3-0.1,26.7-0.3,40-0.4
		C160.1,235,165.5,253.7,171.1,272.3z"/>
	<path d="M462.1,257.4c26.9,11.5,48.7,34.1,59.4,61.4c9.7,24.6,10.3,52.6,1.7,77.5c-9.5,28.1-30.9,52-57.8,64.6
		c-24,11.4-52.1,13.8-77.7,6.7c-30.2-8.1-56.3-29.7-70.1-57.7c-11.5-22.9-14.6-49.8-9-74.8c6.7-30.3,26.7-57.2,53.7-72.4
		c18.9-10.8,41.1-15.7,62.8-14.3C437.9,249.3,450.5,252.3,462.1,257.4z"/>
	<path d="M1642.4,300c20.7,31.2,23.8,73,8.3,107c-12.8,29.1-38.8,51.9-69.2,61c-24.3,7.4-51.2,6.3-74.8-3.3
		c-28-11.2-50.8-34.3-61.8-62.3c-8.3-20.9-10-44.4-5-66.3c4.5-19.9,14.6-38.4,28.8-53c24.5-25.4,61.5-37.8,96.3-32.5
		C1596.4,255,1625.3,273.5,1642.4,300z"/>
</g>
</svg>
