<svg id="Layer_1" data-name="Layer 1" xmlns="http://www.w3.org/2000/svg" viewBox="0 0 1890.14 468.4"><path d="M1013.5,44.9A1068,1068,0,0,1,1135.6,61,1384.14,1384.14,0,0,1,1279,95.3c82,24.1,161.3,56.2,240.1,89.2,3.2,1.4,5.9,3.8,9.4,4.5,8.4.5,13.2-10.3,21.9-8,65.5,12.5,130.4,28.9,193.4,50.6,41.8,14.6,83,31.6,121.5,53.5,29.9,17.2,58.6,37.5,80.9,64.1,1.7,2,3.7,4.5,3,7.4-8,20.8-22.4,38.2-37.5,54.2-1.2,1.3-2.3,2.9-1.8,4.8.9,2.5,2.8,4.5,4.2,6.7,5,7.5,9.7,15.2,14.5,22.9,6.1-.9,13.1-1.3,18.5,2.3a10.24,10.24,0,0,1,.9,15.7c-5.5,4.9-13,7.3-20.3,8.1q-119.55,1.95-239.2,4c-3.8.5-2.9-4.1-1.6-6.2,17.3-32,21-70.2,13.8-105.6-.4-2-1.9-3.3-3.2-4.7-3,5.2-1.4,11.4-2.2,17a156.36,156.36,0,0,1-26.9,74.8c-16.4,23.7-40.9,41.2-68.2,50.2-22.4,7.3-46.2,10.7-69.7,8.4-30.3-2.8-59.6-15.6-81.7-36.6-26.4-25-43.8-59.5-47.6-95.7a7.23,7.23,0,0,0-2.7-5.2,20.93,20.93,0,0,0-2.3,8.2c-.6,9.7-3.3,19.2-3.3,29a69.77,69.77,0,0,0,4.9,25.6c4.3,12.1,8,24.4,11.2,36.8,8,4.3,15.9,8.7,23.9,12.9-66.8-2.2-133.6-5.1-200.4-7Q897,467,561.3,456.7c-3,.2-2.7-3.5-2.1-5.5,3-9.6,6.4-19.1,9.5-28.7-1.4-2.8-5.4-.1-7.2-2,1-5.4,3.9-10.2,5.2-15.6,6.5-22,9.4-45.6,4.9-68.2-3.7-19.9-9.9-39.5-20.1-57-14.4-25.2-36.8-45.3-62.6-58.4-18.9-9.5-39.2-17-60.4-18.7-37.8-3.2-75.7,10-105.9,32.3-23.6,17.5-43.7,41-53.7,68.9-4.6,12.4-5.7,25.7-6.8,38.7-1.5,20.9-1.8,42.4,4,62.7,1.1,4.5,3.8,8.2,5.3,12.5.8,2.4-1.8,3.9-3.9,3.4-3.1.1-6.7-1.8-9.4.5-1,3.7,1.7,6.8,2.7,10.1-.1,1.6-2.1,2.1-3.4,2-6.7-.4-13.4-.4-20.1-1.6-17.5-2.9-34-10.7-48.2-21.3-13.4-9.9-24.8-22.1-34.9-35.3-23.6-3.5-47.3-6.7-71-10-2.5,0-3.9-2.7-3.8-4.9-.2-10.3-.2-20.7.1-31,0-5.9-4.5-10-8.7-13.5-7-5.9-9-15.2-9.7-23.9,25.4-.5,50.8.2,76.2.2,4.6-.2,9.3.9,13.6-1,10-3.9,20-7.6,30-11.5,1.7-.6,3.6-2.1,3-4.2q-16.2-53.55-32-107.1c-1-4-5.3-5.6-8.9-6.5-16.9-4.1-33.8-8-50.8-12.1-1.8-.3-3.8-1.1-5.6-.1-1.6.6-3.9,2.4-5.2.4-.4-3,2.2-5.7,5.1-6,10.6-2.2,21.4-3.4,32-5.2,53.3-8.1,106.5-17.7,159.7-26.2q69.45-11.25,139.1-21.3c48.3-6.9,96.6-13.5,145.2-18.3Q630.9,66.85,699.2,61c14.4-4.3,29-8.7,44.2-9.5,89.7-9.7,180.2-13.2,270.1-6.6m104.1,42c-67.5-10.2-136-11.2-204-8.1-3.3.3-9.5-.2-8.8,5,2.6,24,5.7,48.1,8.3,72.1.1,3.9,4.1,6.1,7.6,6.5,29,3.4,57.9,7.9,86.8,12q53.55,7.8,107,16c42.8,6.6,85.4,14.4,128.3,19.7,13.9,1.6,27.8,3.2,41.8,3.2,3.8-5.3,7.1-11.1,12-15.5,1.6-1.7,3.9-3.3,3.8-5.9-.1-2.3-2.4-3.6-4.1-4.8-5.4-3.2-10.1-7.3-14.7-11.4-1.2-13.5-2.6-27-4-40.5,8.1.4,16.3.4,24.4,1.2,12.7,4.9,25.2,10.2,37.9,15.1,4.4,1.4,6.4,6,9.6,9.1,2.1,2.4,5.5,5.8,3.2,9.2-10,13.7-20.3,27.1-30.2,40.8-2.1,2.1-1.2,5.9,2.1,5.8,15.7.5,31.4-1.2,46.9-3.4,26.5-4.1,52.7-10,79.1-15,2.9-.6,6.3-.7,8.4-3.2a28.1,28.1,0,0,0-5.4-2.9c-7-2.3-13.5-5.8-20.2-8.8-38-17.5-76.3-34.3-115.7-48.4-24.6-8.8-49.8-15.8-74.9-22.9-41.2-11.3-83.1-19-125.2-24.9M742.3,80.7a18.65,18.65,0,0,0-7.4,1.3q-42.45,17.1-85,34.2a17.38,17.38,0,0,0-5.6,3.8,12,12,0,0,0,5.3,2.3c32.5,4.5,65,9.5,97.5,14.3,1.8.4,5.1,0,4.4-2.6-3-1.9-6.5-2.5-9.8-3.6-15.8-4.9-31.4-10.3-47.2-15.5,14.7-10,29.3-20.1,44-30.1a12.44,12.44,0,0,0,3.8-4.1M866,87.1c0-2.7-3.2-3.8-5.4-3.3-13.3,1.4-26.6,3.6-39.9,5.6-6.6,1.1-14.3,1.2-19.1,6.5-11,13.8-22.3,27.3-32,42.1,29.5,5.5,59.3,9.8,88.9,14.6,1.9.1,4,1.1,5.8-.1,2.3-1.7,2.3-4.9,2.3-7.5-.7-19.4-.4-38.7-.6-57.9m-85.2-2.2a8,8,0,0,0-4.4,1.7c-12.4,9.2-24.9,18.2-37.2,27.4,2.1,4.7,6.5,7.8,9.6,11.8,3,2.8,5,6.9,8.9,8.6,1.9-1.1,1.4-3.5.7-5.2-1.7-4.1-4.5-7.6-6.4-11.7-.7-1.5.3-2.9,1.4-3.9,7.9-7.4,15.5-15.1,23.2-22.7,1.7-1.7,3.8-3.4,4.2-6m556.9,168.3q-247.5-38.1-495-76.1c-5.9-.5-11.8.8-17.6,2q-72.75,14.1-145.6,28c-2.6.6-5.4.7-7.8,1.9a7,7,0,0,0,1.4,4.4c10.2,14.5,19.8,29.5,29.6,44.3q28.65,43.5,56.9,87.2c2.2,3.3,4.2,7.4,8.2,8.8,3.5,1,7.1,1.2,10.6,2.3,19.9,6.5,40.2,11.8,60.3,17.7l67.8,19.5c3.6,1,7.2,2.4,10.9,2.4q189,8.85,378.1,17.8c27.8,1.2,55.6,2.8,83.4,3.8l-464.4-54c-9.3-.8-18.6-.4-28-.7l-55.9-.6c-1.7,0-3.6,0-5.1-1-9.9-5.8-19.7-11.7-29.6-17.5a8.8,8.8,0,0,1-3.3-3.6c-13.2-24.1-26.8-48-39.9-72.1-4.4-9.8-4.6-20.6-6.7-31-1.1-7.1-3.1-14-4.2-21,.1-2.8,3.2-3.7,5.5-4,25.5-3.9,50.9-7.9,76.4-11.7,11.5-1.5,23.1-4.6,34.8-2.8q245.55,29.85,491.1,59.5c14.8,1.6,29.4,4.2,44.2,4.8-18.7-2.2-37.4-5.6-56.1-8.3M1565,239.7a121.6,121.6,0,0,0-128.6,73.9c-14.8,35.3-11.7,77.5,8.4,110.1a121.94,121.94,0,0,0,174.7,36,120.5,120.5,0,0,0,40.8-50.2c15.9-35.8,13.2-79.4-7.6-112.7a121.77,121.77,0,0,0-87.7-57.1M1794.3,258a290.2,290.2,0,0,0-40.2-8.5c31.5,12.8,62.5,27.6,90,47.7a163,163,0,0,1,18.9,16.2c6.2.5,12.4,1,18.6,1.8,2.7.3,5.7.9,7.9-1.1-2.7-4-6.6-6.9-10-10.2-23.9-22.3-54-37-85.2-45.9m88.1,95c-5.5.4-6.4,7.1-9,10.9-12.5,19.1-25.2,38-37.8,57-1.4,2.3-3.4,4.3-3.9,7s2.5,3.5,4.2,4.7c6.6,3.7,12.9,8.1,19.7,11.3a140,140,0,0,0,31,2.3c3.6-.2,8.3-.5,9.9-4.4,2.6-6.1-1-12.4-2.7-18.2-3.1-9.9-5.9-21.4-.5-31,2.7-4.6,4.9-9.6,7.7-14.2,4.4-2.2,9.3-3.2,13.7-5.4,1.3-.7,2.4-2.3,1.6-3.8-1.1-1.9-3.2-2.9-5.1-3.8-4.6-2-9.3-3.8-14.1-5.5-11.2,22.7-22,45.6-33.3,68.3,9.3-23.5,18.9-46.8,28.3-70.3C1888.8,356.3,1885.9,353.9,1882.4,353Z" transform="translate(-61.1 -41.51)"/><path d="M141.6,171.9l10.5,36.9c-15.3-.1-30.7-.3-46-.5-6.3-14.3-12.5-28.7-19.5-42.6-1.3-2.3-.4-5.8,2.3-6.4,4.3-1,8.6.4,12.7,1.4C115,164.1,128.3,168,141.6,171.9Z" transform="translate(-61.1 -41.51)"/><path d="M430,211.8a157.64,157.64,0,0,1,35.9,7.8A148.53,148.53,0,0,1,541,278.3c23.7,35.7,30.6,81.8,18.8,122.9a149,149,0,0,1-60.6,83.4c-35.3,23.8-81.1,31.1-122.1,19.8a148.32,148.32,0,0,1-83.4-58.7A149.72,149.72,0,0,1,322.6,244c29.8-24.1,69.2-35.8,107.4-32.2m-60.8,36.6A121.61,121.61,0,0,0,303,317.7a122.84,122.84,0,0,0-3.3,75.1c9,33.8,33.7,63,65.4,77.7a121.88,121.88,0,0,0,65.4,10.8c36.5-3.7,70.6-25.2,89.9-56.5,21.7-34.2,24.4-79.3,7.1-115.9-14.5-31.6-43.3-56.3-76.8-65.6a131,131,0,0,0-17.6-3.7A123.66,123.66,0,0,0,369.2,248.4Z" transform="translate(-61.1 -41.51)"/><path d="M171.1,272.3c-9.2,3.8-18.5,7.4-27.7,11.2-2.4,1.1-5.2,1-7.8,1l-24.5.3c.2-12,.2-24-.2-36-.4-9.2-.7-18.5-2.7-27.5-.2-1.2-.6-2.6.2-3.6,1.8-1.1,4.1-.9,6.1-1,13.3-.1,26.7-.3,40-.4C160.1,235,165.5,253.7,171.1,272.3Z" transform="translate(-61.1 -41.51)"/><path d="M462.1,257.4a111.75,111.75,0,0,1,59.4,61.4A111.77,111.77,0,0,1,387.7,467.6a111.39,111.39,0,0,1-70.1-57.7,113,113,0,0,1-9-74.8,111.76,111.76,0,0,1,153.5-77.7Z" transform="translate(-61.1 -41.51)"/><path d="M1642.4,300c20.7,31.2,23.8,73,8.3,107a111.47,111.47,0,0,1-69.2,61,113,113,0,0,1-74.8-3.3,111.94,111.94,0,0,1-38-181.6c24.5-25.4,61.5-37.8,96.3-32.5A111.7,111.7,0,0,1,1642.4,300Z" transform="translate(-61.1 -41.51)"/></svg>